<?xml version="1.0" encoding="utf-8"?>
<!-- Generator: Adobe Illustrator 27.2.0, SVG Export Plug-In . SVG Version: 6.00 Build 0)  -->
<svg version="1.1" id="Layer_1" xmlns="http://www.w3.org/2000/svg" xmlns:xlink="http://www.w3.org/1999/xlink" x="0px" y="0px"
	 viewBox="0 0 566.9 566.9" style="enable-background:new 0 0 566.9 566.9;" xml:space="preserve">
<style type="text/css">
	.st0{fill:#68DA6A;}
	.st1{fill:#FFFFFF;}
</style>
<circle class="st0" cx="284" cy="283.2" r="269.3"/>
<path class="st1" d="M460.3,249.8L460.3,249.8c-1.8,0-3.5,0.4-5.1,1.3l-17.8,9.4c-2.3-1.3-4.7-2.3-7.2-2.9l-25.4-6.4v-2.9
	c11.2-7.8,18.1-20.8,18.1-34.6v-10.6c0-23.5-18.4-43.1-41-43.8c-1.1,0-2.3,0-3.4,0.1l4.8-11.2c1.1-2.6,0.5-5.6-1.5-7.5L357.2,116
	c-2.3-2.3-5.9-2.7-8.6-0.9l-14.2,9.3c-7.2-4-14.7-7.2-22.6-9.4l-3.5-16.6c-0.6-3.1-3.5-5.5-6.7-5.5h-34.9c-3.2,0-6,2.3-6.7,5.4
	l-3.5,16.5c-7.8,2.2-15.5,5.3-22.6,9.4l-14.2-9.3c-2.7-1.8-6.3-1.4-8.6,0.9l-24.8,24.8c-1.9,1.9-2.6,4.9-1.5,7.5l4.7,11.2
	c-0.2,0-0.5-0.1-0.7-0.1c-11.5-0.2-22.4,4-30.7,12s-12.8,18.8-12.8,30.3v12.1c0,13.8,6.9,26.8,18.1,34.6v2.9l-16.6,4.1l-27.5-16
	c-1.7-1-3.5-1.5-5.5-1.5h-6c-6,0-10.9,4.8-10.9,10.9V338c0,14.8,9.4,27.9,23.5,32.5l34.8,11.6c0.7,0.2,1.5,0.3,2.2,0.3h5.2
	c3.1,0,5.8-2.1,6.7-5.1l0,0l18.1,11c0.3,9.9,8.2,17.9,18.1,18.1c0.4,9.9,8.2,17.7,18.1,18.1c0.4,9.9,8.2,17.7,18.1,18.1
	c0.4,10.1,8.6,18.1,18.8,18.1c3.8,0,7.5-1.2,10.6-3.2l5.3,4.8c3.3,2.9,7.7,4.6,12.2,4.6h1.1c10,0,18.1-8.1,18.3-18.1
	c9.9-0.2,18-8.1,18.1-18.1c9.9-0.2,18-8.1,18.1-18.1c10-0.2,18.1-8.5,18.1-18.5c0-0.6,0-1.2-0.1-1.8l89.8-45.1
	c11.6-5.8,19-17.7,19-30.6v-56.1C471.2,254.7,466.4,249.8,460.3,249.8z M410.9,203.1v10.6c0,10.7-5.8,20.7-15.1,26.1l-3,1.8v19.1
	l30.2,7.6l-66.4,34.9V287c0-8.1-3.2-15.6-8.7-21l20.7-5.2v-19.1l-3.1-1.9c-9.3-5.3-15.1-15.4-15.1-26.1v-12.1
	c0-8.2,3.2-15.9,9.2-21.6c5.9-5.7,13.7-8.8,21.9-8.5C397.8,171.9,410.9,186.1,410.9,203.1z M293.3,298.2l-27.3-8.8
	c-12.4-4-26-4.6-38.7-1.8l-3.5,0.7v-1.8c0-8.3,5.6-15.6,13.7-17.6l34.6-8.4v-19.1l-3-1.8c-9.3-5.3-15.1-15.4-15.1-26.1v-12.1
	c0-8.2,3.2-15.9,9.2-21.6c5.9-5.7,13.8-8.8,21.9-8.5c16.1,0.5,29.3,14.7,29.3,31.7v10.6c0,10.7-5.8,20.7-15.1,26.1l-3,1.8v19.1
	l34.5,8.6c8,2,13.6,9.3,13.6,17.6v22.7l-1.5,0.7h-3.7l-37.1-10.6C299.3,298.7,296.3,298.4,293.3,298.2z M225.1,183.2
	c11.3-21.9,34.2-36,59-36c24.6,0,47.3,13.9,58.8,35.6c-2.9,5.7-4.4,12.2-4.4,18.8v12.1c0,13.8,6.9,26.8,18.1,34.6v2.9l-24.1,6
	l-24.1-6v-2.9c11.2-7.8,18.1-20.8,18.1-34.6v-10.6c0-23.5-18.4-43.1-41-43.8c-11.5-0.3-22.5,3.9-30.7,11.9
	c-8.3,8-12.8,18.8-12.8,30.3v12.1c0,13.8,6.9,26.8,18.1,34.6v2.9l-24.1,6l-24.1-6v-2.9c11.2-7.8,18.1-20.8,18.1-34.6V203
	C229.8,196,228.1,189.3,225.1,183.2z M200.7,143.6l12.1-12.1c2.3-2.3,5.9-2.7,8.5-0.9l12.3,8l3.2-1.9c8.1-5,16.9-8.6,26.1-10.9
	l3.7-0.9l3.1-14.4c0.6-3.1,3.5-5.4,6.7-5.4h15.3c3.2,0,6,2.3,6.7,5.4l3.1,14.4l3.7,0.9c9.2,2.2,18.1,5.9,26.1,10.9l3.2,1.9l12.3-8
	c2.7-1.8,6.3-1.4,8.5,0.9l12.1,12c2,2,2.6,5,1.5,7.6l-5,11.7c-4.7,2-9,4.8-12.7,8.5c-0.2,0.2-0.5,0.6-0.6,0.7
	c-14.3-22.6-39.4-36.8-66.4-36.8c-27.3,0-52.5,14.4-66.7,37.2c-3.8-4-8.3-7.2-13.3-9.4l-5-11.9C198.1,148.5,198.7,145.5,200.7,143.6
	z M175.5,260.6v-19.1l-3-1.8c-9.4-5.3-15.2-15.3-15.2-26v-12.1c0-8.2,3.2-15.9,9.2-21.6c5.9-5.7,13.7-8.8,21.9-8.5
	c16.1,0.5,29.3,14.7,29.3,31.7v10.6c0,10.7-5.8,20.7-15.1,26.1l-3,1.8v19.1l20.6,5.2c-5.3,5.5-8.7,12.9-8.7,21v4.4l-18.9,4.1l0,0
	c0.3-1.1,0.5-2.3,0.5-3.5v-0.4c0.1-5.5-2.7-10.6-7.5-13.5l-24.1-14L175.5,260.6z M109.2,249.8h4.4l43.4,25.3l-22,87.6l-2.5-0.8
	c-14-4.7-23.4-17.7-23.4-32.5L109.2,249.8L109.2,249.8z M158.4,370.6l-11.9-4l21.3-85.1l13.7,8v1.8l-22.7,79.3L158.4,370.6
	L158.4,370.6z M199.6,387.9c0-1.8,0.7-3.5,1.9-4.8l10.6-10.6c1.3-1.3,3-1.9,4.8-1.9c3.7,0,6.8,3,6.8,6.8c0,1.8-0.7,3.5-1.9,4.8
	l-10.6,10.6c-1.3,1.3-3,1.9-4.8,1.9C202.7,394.7,199.6,391.7,199.6,387.9z M217.8,406c0-1.8,0.7-3.5,1.9-4.8l10.6-10.6
	c1.3-1.3,3-1.9,4.8-1.9c3.7,0,6.8,3,6.8,6.8c0,1.8-0.7,3.5-1.9,4.8l-10.6,10.6c-1.3,1.3-3,1.9-4.8,1.9
	C220.8,412.7,217.8,409.8,217.8,406z M235.8,424.1c0-1.8,0.7-3.5,1.9-4.8l10.6-10.6c1.3-1.3,3-1.9,4.8-1.9c3.7,0,6.8,3,6.8,6.8
	c0,1.8-0.7,3.5-1.9,4.8L247.4,429c-1.3,1.3-3,1.9-4.8,1.9C238.9,430.9,235.8,427.9,235.8,424.1z M260.8,449c-3.7,0-6.8-3-6.8-6.8
	c0-1.8,0.7-3.5,1.9-4.8l10.6-10.6c1.3-1.3,3-1.9,4.8-1.9c3.7,0,6.8,3,6.8,6.8c0,1.8-0.7,3.5-1.9,4.8l-10.6,10.6
	C264.2,448.2,262.5,449,260.8,449z M289.9,455h-1.1c-1.5,0-3-0.6-4.1-1.6l-4.5-4l4.5-4.5c1.6-1.6,2.9-3.5,3.8-5.6l5.5,4.6
	c1.5,1.2,2.3,2.9,2.3,4.8C296.2,452.2,293.4,455,289.9,455z M344.1,400.7h-1c-1.5,0-3-0.6-4.1-1.5l-32.7-27.3l-7.7,9.3l31.8,26.5
	c1.5,1.2,2.3,2.9,2.3,4.8c0,3.5-2.8,6.3-6.3,6.3h-1.3c-1.5,0-2.9-0.6-4-1.5L288,389.9l-7.7,9.3l31.8,26.5c1.5,1.2,2.3,2.9,2.3,4.8
	c0,3.5-2.8,6.3-6.3,6.3c-2.3,0-4.6-0.8-6.4-2.3l-13.5-11.2c-2.9-6-9-10.2-16.2-10.6c-0.4-9.9-8.2-17.7-18.1-18.1
	c-0.4-9.9-8.2-17.7-18.1-18.1c-0.4-10.1-8.6-18.1-18.8-18.1c-5,0-9.8,2-13.4,5.5L193,374.5c-0.6,0.6-1.1,1.4-1.7,2l-18.5-11.1
	l16.4-56.8l40.7-9c10.7-2.4,21.9-1.9,32.3,1.5l8.9,2.9l-30.2,15.1c-6.9,3.5-11.1,10.4-11.1,18.1v1.2c0,11.1,9,20.2,20.2,20.2
	c3.7,0,7.3-1,10.4-2.9l22.5-13.5c4.5-2.7,10.6-2.1,14.5,1.4l51,45.9c1.4,1.2,2.1,3,2.1,4.8C350.5,397.7,347.6,400.7,344.1,400.7z
	 M440.2,340.1l-82.7,41.4c-0.3-0.4-0.6-0.6-1-1l-51-45.9c-4.4-4-10.2-6.3-16.3-6.3c-4.4,0-8.8,1.2-12.5,3.5l-22.5,13.5
	c-1.3,0.7-2.7,1.1-4.1,1.1c-4.5,0-8.1-3.6-8.1-8.1v-1.2c0-3.1,1.8-5.9,4.5-7.3l33.6-16.9c5.7-2.9,12.6-3.5,18.8-1.8l38,10.9l9.3,0.2
	l113.1-59.5v46.8C459.1,322.4,451.8,334.3,440.2,340.1z"/>
</svg>
